<svg xmlns="http://www.w3.org/2000/svg" width="370.3903743315508" height="86.45032368476282" viewBox="0 0 370.3903743315508 86.45032368476282" class="css-1j8o68f"><defs id="SvgjsDefs1001"><linearGradient id="SvgjsLinearGradient1013"><stop id="SvgjsStop1014" stop-color="#8f5e25" offset="0"></stop><stop id="SvgjsStop1015" stop-color="#fbf4a1" offset="0.5"></stop><stop id="SvgjsStop1016" stop-color="#8f5e25" offset="1"></stop></linearGradient><linearGradient id="SvgjsLinearGradient1017"><stop id="SvgjsStop1018" stop-color="#8f5e25" offset="0"></stop><stop id="SvgjsStop1019" stop-color="#fbf4a1" offset="0.5"></stop><stop id="SvgjsStop1020" stop-color="#8f5e25" offset="1"></stop></linearGradient><linearGradient id="SvgjsLinearGradient1021"><stop id="SvgjsStop1022" stop-color="#8f5e25" offset="0"></stop><stop id="SvgjsStop1023" stop-color="#fbf4a1" offset="0.5"></stop><stop id="SvgjsStop1024" stop-color="#8f5e25" offset="1"></stop></linearGradient></defs><g id="SvgjsG1007" featurekey="symbolFeature-0" transform="matrix(1.2886823880073637,0,0,1.2886823880073637,-1.2886823880073637,1.6221315232252924)" fill="url(#SvgjsLinearGradient1013)"><title xmlns="http://www.w3.org/2000/svg">invest</title><g xmlns="http://www.w3.org/2000/svg"><path d="M27,25H22A10,10,0,0,1,12,15a1,1,0,0,1,1-1h5A10,10,0,0,1,28,24,1,1,0,0,1,27,25ZM14.06,16A8,8,0,0,0,22,23h3.94A8,8,0,0,0,18,16Z"></path><path d="M43.23,22.9A10,10,0,0,1,36.16,20a1.09,1.09,0,0,1-.07-1.48L39.63,15a10,10,0,0,1,14.14,0,1.08,1.08,0,0,1,.33.74,1.05,1.05,0,0,1-.26.74L50.3,20A10,10,0,0,1,43.23,22.9Zm-5-3.74a8,8,0,0,0,10.63-.6l2.79-2.79a8,8,0,0,0-10.64.6Z"></path><path d="M32.07,17.93a1,1,0,0,1-.71-.29L29.23,15.5a10,10,0,0,1,0-14.14,1,1,0,0,1,1.41,0L32.77,3.5a10,10,0,0,1,0,14.14A1,1,0,0,1,32.07,17.93ZM30,3.53a8,8,0,0,0,.66,10.56L32,15.47a8,8,0,0,0-.66-10.56Z"></path><path d="M32,30a1,1,0,0,1-.71-.29l-5-5a1,1,0,0,1,1.42-1.42l5,5a1,1,0,0,1,0,1.42A1,1,0,0,1,32,30Z"></path><path d="M32,25a1,1,0,0,1-.71-.29,1,1,0,0,1,0-1.42l5-5a1,1,0,0,1,1.42,1.42l-5,5A1,1,0,0,1,32,25Z"></path><path d="M32,35.5a1,1,0,0,1-1-1V17a1,1,0,0,1,2,0V34.5A1,1,0,0,1,32,35.5Z"></path><path d="M36,42H28a1,1,0,0,1-.78-.37L23.44,36.9a2,2,0,0,1,.4-2.89,2,2,0,0,1,1.77-.27,6.45,6.45,0,0,1,.84.37A2.94,2.94,0,0,0,28,34.5a3,3,0,0,0,1.55-.39,5.21,5.21,0,0,1,4.89,0,3.3,3.3,0,0,0,3.11,0,5,5,0,0,1,.84-.37,2,2,0,0,1,1.77.27A2,2,0,0,1,41,35.65a2,2,0,0,1-.44,1.25l-3.78,4.73A1,1,0,0,1,36,42Zm-7.52-2h7L39,35.65a4.49,4.49,0,0,0-.56.24,5.21,5.21,0,0,1-4.89,0,3.3,3.3,0,0,0-3.11,0,5.21,5.21,0,0,1-4.89,0,3.89,3.89,0,0,0-.58-.25h0Z"></path><path d="M42.74,63H21.26a7.25,7.25,0,0,1-4.92-12.59l11-10.14A1,1,0,0,1,28,40h8a1,1,0,0,1,.68.27l11,10.14A7.25,7.25,0,0,1,42.74,63ZM28.39,42l-10.7,9.88A5.26,5.26,0,0,0,21.26,61H42.74a5.26,5.26,0,0,0,3.57-9.12L35.61,42Z"></path><path d="M32,56H30a1,1,0,0,1,0-2h2a1,1,0,0,0,0-2,3,3,0,0,1,0-6h2a1,1,0,0,1,0,2H32a1,1,0,0,0,0,2,3,3,0,0,1,0,6Z"></path><path d="M32,48a1,1,0,0,1-1-1V45a1,1,0,0,1,2,0v2A1,1,0,0,1,32,48Z"></path><path d="M32,58a1,1,0,0,1-1-1V55a1,1,0,0,1,2,0v2A1,1,0,0,1,32,58Z"></path><path d="M39,42H25a1,1,0,0,1,0-2H39a1,1,0,0,1,0,2Z"></path><path d="M39,42a1,1,0,0,1-.55-1.83l3-2a1,1,0,0,1,1.1,1.66l-3,2A.94.94,0,0,1,39,42Z"></path><path d="M42,44a.94.94,0,0,1-.55-.17l-3-2a1,1,0,1,1,1.1-1.66l3,2A1,1,0,0,1,42,44Z"></path><path d="M4,33a1,1,0,0,1-1-1,1,1,0,0,0-1-1,1,1,0,0,1,0-2,1,1,0,0,0,1-1,1,1,0,0,1,2,0,1,1,0,0,0,1,1,1,1,0,0,1,0,2,1,1,0,0,0-1,1A1,1,0,0,1,4,33Z"></path><path d="M58,24a1,1,0,0,1-1-1,1,1,0,0,0-1-1,1,1,0,0,1,0-2,1,1,0,0,0,1-1,1,1,0,0,1,2,0,1,1,0,0,0,1,1,1,1,0,0,1,0,2,1,1,0,0,0-1,1A1,1,0,0,1,58,24Z"></path><path d="M50,40a1,1,0,0,1-1-1,1,1,0,0,0-1-1,1,1,0,0,1,0-2,1,1,0,0,0,1-1,1,1,0,0,1,2,0,1,1,0,0,0,1,1,1,1,0,0,1,0,2,1,1,0,0,0-1,1A1,1,0,0,1,50,40Z"></path><path d="M16,46a1,1,0,0,1-1-1,1,1,0,0,0-1-1,1,1,0,0,1,0-2,1,1,0,0,0,1-1,1,1,0,0,1,2,0,1,1,0,0,0,1,1,1,1,0,0,1,0,2,1,1,0,0,0-1,1A1,1,0,0,1,16,46Z"></path><path d="M46,11a1,1,0,0,1-1-1,1,1,0,0,0-1-1,1,1,0,0,1,0-2,1,1,0,0,0,1-1,1,1,0,0,1,2,0,1,1,0,0,0,1,1,1,1,0,0,1,0,2,1,1,0,0,0-1,1A1,1,0,0,1,46,11Z"></path><path d="M16,11a1,1,0,0,1-1-1,1,1,0,0,0-1-1,1,1,0,0,1,0-2,1,1,0,0,0,1-1,1,1,0,0,1,2,0,1,1,0,0,0,1,1,1,1,0,0,1,0,2,1,1,0,0,0-1,1A1,1,0,0,1,16,11Z"></path><circle cx="39" cy="4" r="1"></circle><circle cx="54" cy="50" r="1"></circle><circle cx="11" cy="52" r="1"></circle><circle cx="61" cy="35" r="1"></circle><circle cx="39" cy="28" r="1"></circle><circle cx="7" cy="40" r="1"></circle><circle cx="22" cy="30" r="1"></circle><circle cx="9" cy="19" r="1"></circle></g></g><g id="SvgjsG1008" featurekey="nameFeature-0" transform="matrix(1.625389382526725,0,0,1.625389382526725,97.3751548935648,-18.464424377562544)" fill="url(#SvgjsLinearGradient1017)"><path d="M18.68 24.759999999999998 c3.72 0 7.32 2.68 7.32 7.16 c0 4.96 -4.52 8.16 -11.2 8.16 c-1.92 0 -4.16 -0.24 -7.12 -0.24 c-2.52 0 -4.44 0.04 -6.28 0.24 c-0.36 0.04 -0.56 -1.36 -0.24 -1.44 c2.32 -0.6 4.12 -0.96 4.12 -3.92 l0 -17.76 c0 -2.56 -1.64 -3.24 -3.36 -3.68 c-0.32 -0.08 -0.12 -1.4 0.2 -1.36 c1.64 0.2 3.56 0.24 4.84 0.24 c3.2 0 5.56 -0.24 7.32 -0.24 c5.16 0 9.4 2.16 9.44 6.56 c0.04 3.24 -2.24 5.48 -5.04 6.04 l0 0.24 z M12.92 14 c-2.12 0 -2.84 0.72 -2.84 2.96 l0 7.12 l4.12 0 c2.88 0 4.56 -1.44 4.56 -4.52 c0 -3.8 -2.56 -5.56 -5.84 -5.56 z M14.68 38 c3.52 0 6.16 -1.04 6.16 -5.2 c0 -4.4 -2.92 -6.72 -6.64 -6.72 l-4.12 0 l0 8.64 c0 2.2 1.12 3.28 4.6 3.28 z M59.2 39 c0.32 0 0.24 1.08 0 1.16 c-2.52 0.84 -6 0.72 -8.4 -2.36 l-6.16 -7.92 c-1.72 -2.24 -3.76 -2.56 -6.56 -2.6 l0 7.76 c0 2.8 1.92 3.28 4.48 3.6 c0.28 0.04 0.08 1.36 -0.24 1.36 l-12.12 0 c-0.32 0 -0.56 -1.32 -0.24 -1.36 c2.04 -0.28 3.32 -1.08 3.32 -3.6 l0 -17.84 c0 -2.64 -1.4 -3.4 -3.32 -3.92 c-0.32 -0.08 -0.12 -1.4 0.24 -1.36 c1.56 0.2 3.32 0.24 4.6 0.24 c2.96 0 5.72 -0.24 7.64 -0.24 c6.04 0 10.08 2.48 10.08 7.4 c0 4.64 -3.76 6.92 -7.12 7.12 l0 0.2 c1.6 0 2.76 0.68 4.52 2.88 l5.96 7.48 c1.24 1.56 2.44 2 3.32 2 z M39.239999999999995 25.439999999999998 c5.96 0 8.24 -1.04 8.24 -5.04 c0 -4.28 -2.72 -6.4 -6.28 -6.4 c-2.36 0 -3.12 0.96 -3.12 3.2 l0 8.24 l1.16 0 z M62 40 c-0.32 0 -0.56 -1.32 -0.24 -1.36 c2.04 -0.28 3.32 -1.08 3.32 -3.6 l0 -18.08 c0 -2.52 -1.28 -3.32 -3.32 -3.6 c-0.32 -0.04 -0.08 -1.36 0.24 -1.36 l10.96 0 c0.32 0 0.56 1.32 0.24 1.36 c-1.72 0.24 -3.32 0.8 -3.32 3.6 l0 18.08 c0 2.8 1.6 3.36 3.32 3.6 c0.32 0.04 0.08 1.36 -0.24 1.36 l-10.96 0 z M94.4 40.64 c-9.56 0 -17.24 -4.72 -17.24 -14.12 c0 -7.64 5.24 -15.16 16.36 -15.16 c4.88 0 8.68 1.44 8.2 2.8 l-0.6 1.68 c-1.4 3.96 -3 -1.24 -10.48 -1.24 c-6.2 0 -9.04 3.56 -9.04 9.6 c0 9 6.12 13.88 11.64 13.88 c2.88 0 3.96 -1.4 3.96 -3.68 l0 -0.72 c0 -3.04 -1.36 -4.04 -4.56 -4.52 c-0.52 -0.08 -0.04 -1.52 0.84 -1.52 l10.28 0 c1.12 0 0.72 1.4 0.28 1.52 c-1.48 0.4 -2.48 1.24 -2.48 3.8 l0 1.4 c0 0.96 0.08 1.8 0.84 3.04 c-2.4 1.32 -7.04 3.24 -8 3.24 z M138.32 38.64 c0.32 0.04 0.08 1.36 -0.24 1.36 l-10.96 0 c-0.32 0 -0.56 -1.32 -0.24 -1.36 c2.04 -0.28 3.32 -1.08 3.32 -3.6 l0 -6.88 c-0.2 -0.68 -1.04 -0.68 -1.8 -0.68 l-10.24 0 c-0.76 0 -1.6 0 -1.8 0.68 l0 6.88 c0 2.8 1.6 3.36 3.32 3.6 c0.32 0.04 0.08 1.36 -0.24 1.36 l-10.96 0 c-0.32 0 -0.56 -1.32 -0.24 -1.36 c2.04 -0.28 3.32 -1.08 3.32 -3.6 l0 -18.08 c0 -2.52 -1.28 -3.32 -3.32 -3.6 c-0.32 -0.04 -0.08 -1.36 0.24 -1.36 l10.96 0 c0.32 0 0.56 1.32 0.24 1.36 c-1.72 0.24 -3.32 0.8 -3.32 3.6 l0 7.32 c0.2 0.68 1.04 0.68 1.8 0.68 l10.24 0 c0.76 0 1.6 0 1.8 -0.68 l0 -7.32 c0 -2.52 -1.28 -3.32 -3.32 -3.6 c-0.32 -0.04 -0.08 -1.36 0.24 -1.36 l10.96 0 c0.32 0 0.56 1.32 0.24 1.36 c-1.72 0.24 -3.32 0.8 -3.32 3.6 l0 18.08 c0 2.8 1.6 3.36 3.32 3.6 z M147.64000000000001 40 c-0.36 0 -0.6 -1.28 -0.28 -1.32 c2.76 -0.36 4.6 -0.92 4.6 -3.08 l0 -19.72 c0 -1 -0.36 -1.32 -1.32 -1.32 l-1.08 0 c-3.8 0 -5.92 0.88 -6.72 2.6 c-0.36 0.8 -1.72 0.68 -1.56 0 c0.36 -1.44 0.68 -2.68 0.92 -4.8 c0.08 -0.76 0.52 -0.72 1.24 -0.64 c1.84 0.2 3.52 0.28 11.12 0.28 s10.28 -0.08 12.2 -0.28 c0.72 -0.08 1.4 -0.12 1.16 0.64 c-0.6 1.88 -1 3.36 -1.24 4.8 c-0.12 0.68 -1.2 0.72 -1.36 0 c-0.4 -1.68 -2.16 -2.6 -5.6 -2.6 l-1.24 0 c-0.96 0 -1.56 0.32 -1.56 1.32 l0 19.72 c0 2.16 1.84 2.72 4.6 3.08 c0.32 0.04 0.08 1.32 -0.28 1.32 l-13.6 0 z"></path></g><g id="SvgjsG1009" featurekey="nameFeature-1" transform="matrix(0.9846250497931867,0,0,0.9846250497931867,97.83127503139747,46.81465977239358)" fill="url(#SvgjsLinearGradient1021)"><path d="M7.56 40 c-0.36 0 -0.6 -1.28 -0.28 -1.32 c2.76 -0.36 4.6 -0.92 4.6 -3.08 l0 -19.72 c0 -1 -0.36 -1.32 -1.32 -1.32 l-1.08 0 c-3.8 0 -5.92 0.88 -6.72 2.6 c-0.36 0.8 -1.72 0.68 -1.56 0 c0.36 -1.44 0.68 -2.68 0.92 -4.8 c0.08 -0.76 0.52 -0.72 1.24 -0.64 c1.84 0.2 3.52 0.28 11.12 0.28 s10.28 -0.08 12.2 -0.28 c0.72 -0.08 1.4 -0.12 1.16 0.64 c-0.6 1.88 -1 3.36 -1.24 4.8 c-0.12 0.68 -1.2 0.72 -1.36 0 c-0.4 -1.68 -2.16 -2.6 -5.6 -2.6 l-1.24 0 c-0.96 0 -1.56 0.32 -1.56 1.32 l0 19.72 c0 2.16 1.84 2.72 4.6 3.08 c0.32 0.04 0.08 1.32 -0.28 1.32 l-13.6 0 z M45.72 40.64 c-8.32 0 -14.44 -6.16 -14.44 -14.48 c0 -8.08 5.76 -14.8 14.52 -14.8 c8.36 0 14.44 6.12 14.44 14.44 c0 8.12 -5.72 14.84 -14.52 14.84 z M47.28 37.92 c3.52 0 8.2 -2.32 8.2 -9.88 c0 -8.08 -5.48 -13.96 -11.24 -13.96 c-3.52 0 -8.16 2.32 -8.16 9.84 c0 8.16 5.48 14 11.2 14 z M99.68 38.64 c0.32 0.04 0.08 1.36 -0.2 1.36 l-10.44 0 c-0.28 0 -0.48 -1.32 -0.24 -1.36 c1.68 -0.28 2.92 -1.08 2.8 -3.6 l-0.76 -13.44 l-6.48 13.2 c-0.84 1.72 -1.48 3.48 -1.6 4.12 c-0.08 0.48 -0.92 0.72 -1.56 0.72 c-0.6 0 -1 -0.24 -1.24 -0.72 l-9.24 -17.52 l-0.6 13.64 c-0.12 2.8 1.52 3.44 2.8 3.6 c0.32 0.04 0.08 1.36 -0.2 1.36 l-8.28 0 c-0.32 0 -0.56 -1.32 -0.24 -1.36 c1.72 -0.2 3.16 -0.8 3.32 -3.6 l1.28 -22.96 c0.04 -0.68 1.56 -0.72 1.96 0 l11.6 21.68 l10.76 -21.68 c0.36 -0.72 1.96 -0.68 2 0 l1.28 22.96 c0.16 2.8 1.6 3.4 3.28 3.6 z M118.08 40.64 c-8.32 0 -14.44 -6.16 -14.44 -14.48 c0 -8.08 5.76 -14.8 14.52 -14.8 c8.36 0 14.44 6.12 14.44 14.44 c0 8.12 -5.72 14.84 -14.52 14.84 z M119.64 37.92 c3.52 0 8.2 -2.32 8.2 -9.88 c0 -8.08 -5.48 -13.96 -11.24 -13.96 c-3.52 0 -8.16 2.32 -8.16 9.84 c0 8.16 5.48 14 11.2 14 z M165.8 39 c0.32 0 0.24 1.08 0 1.16 c-2.52 0.84 -6 0.72 -8.4 -2.36 l-6.16 -7.92 c-1.72 -2.24 -3.76 -2.56 -6.56 -2.6 l0 7.76 c0 2.8 1.92 3.28 4.48 3.6 c0.28 0.04 0.08 1.36 -0.24 1.36 l-12.12 0 c-0.32 0 -0.56 -1.32 -0.24 -1.36 c2.04 -0.28 3.32 -1.08 3.32 -3.6 l0 -17.84 c0 -2.64 -1.4 -3.4 -3.32 -3.92 c-0.32 -0.08 -0.12 -1.4 0.24 -1.36 c1.56 0.2 3.32 0.24 4.6 0.24 c2.96 0 5.72 -0.24 7.64 -0.24 c6.04 0 10.08 2.48 10.08 7.4 c0 4.64 -3.76 6.92 -7.12 7.12 l0 0.2 c1.6 0 2.76 0.68 4.52 2.88 l5.96 7.48 c1.24 1.56 2.44 2 3.32 2 z M145.84 25.439999999999998 c5.96 0 8.24 -1.04 8.24 -5.04 c0 -4.28 -2.72 -6.4 -6.28 -6.4 c-2.36 0 -3.12 0.96 -3.12 3.2 l0 8.24 l1.16 0 z M197.60000000000002 39 c0.32 0 0.24 1.08 0 1.16 c-2.52 0.84 -6 0.72 -8.4 -2.36 l-6.16 -7.92 c-1.72 -2.24 -3.76 -2.56 -6.56 -2.6 l0 7.76 c0 2.8 1.92 3.28 4.48 3.6 c0.28 0.04 0.08 1.36 -0.24 1.36 l-12.12 0 c-0.32 0 -0.56 -1.32 -0.24 -1.36 c2.04 -0.28 3.32 -1.08 3.32 -3.6 l0 -17.84 c0 -2.64 -1.4 -3.4 -3.32 -3.92 c-0.32 -0.08 -0.12 -1.4 0.24 -1.36 c1.56 0.2 3.32 0.24 4.6 0.24 c2.96 0 5.72 -0.24 7.64 -0.24 c6.04 0 10.08 2.48 10.08 7.4 c0 4.64 -3.76 6.92 -7.12 7.12 l0 0.2 c1.6 0 2.76 0.68 4.52 2.88 l5.96 7.48 c1.24 1.56 2.44 2 3.32 2 z M177.64000000000001 25.439999999999998 c5.96 0 8.24 -1.04 8.24 -5.04 c0 -4.28 -2.72 -6.4 -6.28 -6.4 c-2.36 0 -3.12 0.96 -3.12 3.2 l0 8.24 l1.16 0 z M215.04000000000002 40.64 c-8.32 0 -14.44 -6.16 -14.44 -14.48 c0 -8.08 5.76 -14.8 14.52 -14.8 c8.36 0 14.44 6.12 14.44 14.44 c0 8.12 -5.72 14.84 -14.52 14.84 z M216.60000000000002 37.92 c3.52 0 8.2 -2.32 8.2 -9.88 c0 -8.08 -5.48 -13.96 -11.24 -13.96 c-3.52 0 -8.16 2.32 -8.16 9.84 c0 8.16 5.48 14 11.2 14 z M276.36000000000007 12 c0.52 0 0.64 1.28 0.12 1.36 c-1.6 0.24 -2.84 0.84 -4.16 4.24 l-6.04 15.68 c-1.28 3.32 -1.92 5.16 -1.92 6.72 c0 0.24 -2.8 0.88 -2.92 0.6 l-6.28 -16 l-3.76 8.68 c-1.44 3.32 -1.92 5.12 -1.92 6.72 c0 0.24 -2.84 0.88 -2.96 0.6 l-9.12 -22.96 c-1.36 -3.44 -2.56 -4.04 -4.12 -4.28 c-0.52 -0.08 -0.4 -1.36 0.12 -1.36 l10.4 0 c0.52 0 0.6 1.28 0.12 1.36 c-1.84 0.32 -2.8 1.16 -1.6 4.24 l6.32 16.32 l4.08 -9.44 c0.92 -2.12 1.04 -3.4 -0.04 -6.16 c-1.48 -3.8 -2.52 -4.68 -3.56 -4.96 c-0.44 -0.12 -0.4 -1.36 0.12 -1.36 l7.96 0 c0.4 0 0.52 0.12 0.52 0.32 c0 0.52 -1.76 1.76 -0.4 5.28 l6.16 16 l6.08 -16 c1.32 -3.44 0 -3.88 -1.92 -4.24 c-0.44 -0.08 -0.36 -1.36 0.12 -1.36 l8.6 0 z"></path></g></svg>